<svg width="80" height="80" viewBox="0 0 80 80" fill="none" xmlns="http://www.w3.org/2000/svg">
<circle cx="40" cy="40" r="40" fill="#F9EB4C"/>
<g clip-path="url(#clip0_22_225)">
<path d="M63.2143 63.1428H61.4286C59.5342 63.1428 57.7174 62.3902 56.3778 61.0507C55.0383 59.7111 54.2857 57.8943 54.2857 55.9999C54.2857 57.8943 53.5332 59.7111 52.1936 61.0507C50.8541 62.3902 49.0373 63.1428 47.1429 63.1428C45.2485 63.1428 43.4316 62.3902 42.0921 61.0507C40.7525 59.7111 40 57.8943 40 55.9999C40 57.8943 39.2475 59.7111 37.9079 61.0507C36.5684 62.3902 34.7515 63.1428 32.8571 63.1428C30.9627 63.1428 29.1459 62.3902 27.8064 61.0507C26.4668 59.7111 25.7143 57.8943 25.7143 55.9999C25.7143 57.8943 24.9617 59.7111 23.6222 61.0507C22.2826 62.3902 20.4658 63.1428 18.5714 63.1428H16.7857M50.7143 48.8571C48.8749 46.6208 46.5631 44.8197 43.9448 43.5831C41.3266 42.3465 38.467 41.7052 35.5714 41.7052C32.6759 41.7052 29.8163 42.3465 27.198 43.5831C24.5798 44.8197 22.2679 46.6208 20.4286 48.8571" stroke="black" stroke-width="3.57143" stroke-linecap="round" stroke-linejoin="round"/>
<path d="M38.2143 41.8928C38.4286 33.8214 40.8929 26.4643 46.25 23.8214M35.5714 17.0357C37.8865 16.5798 40.2883 17.0295 42.2817 18.292C44.2751 19.5545 45.7083 21.5336 46.2857 23.8214" stroke="black" stroke-width="3.57143" stroke-linecap="round" stroke-linejoin="round"/>
<path d="M59.3214 25.1429C57.6777 23.368 55.4424 22.2543 53.0355 22.0109C50.6287 21.7676 48.2157 22.4114 46.25 23.8214" stroke="black" stroke-width="3.57143" stroke-linecap="round" stroke-linejoin="round"/>
<path d="M33.1429 27.6428C34.5423 25.581 36.6167 24.0715 39.0089 23.3741C41.4012 22.6766 43.9618 22.8348 46.25 23.8214C48.5452 24.3827 50.5324 25.8141 51.7919 27.8134C53.0514 29.8126 53.4846 32.223 53 34.5357" stroke="black" stroke-width="3.57143" stroke-linecap="round" stroke-linejoin="round"/>
</g>
<defs>
<clipPath id="clip0_22_225">
<rect width="50" height="50" fill="white" transform="translate(15 15)"/>
</clipPath>
</defs>
</svg>
