<svg width="80" height="80" viewBox="0 0 80 80" fill="none" xmlns="http://www.w3.org/2000/svg">
<circle cx="40" cy="40" r="40" fill="#F9EB4C"/>
<path d="M40 47.2916C40.868 47.2916 41.6062 46.9875 42.2146 46.3791C42.8229 45.7708 43.1264 45.0333 43.125 44.1666V42.0833H45.2083C46.0764 42.0833 46.8146 41.7791 47.4229 41.1708C48.0312 40.5625 48.3347 39.825 48.3333 38.9583C48.3333 38.0902 48.0292 37.352 47.4208 36.7437C46.8125 36.1354 46.075 35.8319 45.2083 35.8333H43.125V33.75C43.125 32.8819 42.8208 32.1437 42.2125 31.5354C41.6042 30.927 40.8667 30.6236 40 30.625C39.1319 30.625 38.3937 30.9291 37.7854 31.5375C37.1771 32.1458 36.8736 32.8833 36.875 33.75V35.8333H34.7917C33.9236 35.8333 33.1854 36.1375 32.5771 36.7458C31.9687 37.3541 31.6653 38.0916 31.6667 38.9583C31.6667 39.8263 31.9708 40.5645 32.5792 41.1729C33.1875 41.7812 33.925 42.0847 34.7917 42.0833H36.875V44.1666C36.875 45.0347 37.1792 45.7729 37.7875 46.3812C38.3958 46.9895 39.1333 47.293 40 47.2916ZM40 60.677H39.4792C39.3055 60.677 39.1493 60.6423 39.0104 60.5729C34.4618 59.1493 30.7118 56.3277 27.7604 52.1083C24.809 47.8888 23.3333 43.2277 23.3333 38.125V28.2812C23.3333 27.4132 23.5854 26.6319 24.0896 25.9375C24.5937 25.243 25.2444 24.7395 26.0417 24.427L38.5417 19.7395C39.0278 19.5659 39.5139 19.4791 40 19.4791C40.4861 19.4791 40.9722 19.5659 41.4583 19.7395L53.9583 24.427C54.7569 24.7395 55.4083 25.243 55.9125 25.9375C56.4167 26.6319 56.668 27.4132 56.6667 28.2812V38.125C56.6667 43.2291 55.191 47.8909 52.2396 52.1104C49.2882 56.3298 45.5382 59.1507 40.9896 60.5729C40.816 60.6423 40.4861 60.677 40 60.677ZM40 56.4583C43.6111 55.3125 46.5972 53.0208 48.9583 49.5833C51.3194 46.1458 52.5 42.3263 52.5 38.125V28.2812L40 23.5937L27.5 28.2812V38.125C27.5 42.3263 28.6805 46.1458 31.0417 49.5833C33.4028 53.0208 36.3889 55.3125 40 56.4583Z" fill="black"/>
</svg>
