<svg width="80" height="80" viewBox="0 0 80 80" fill="none" xmlns="http://www.w3.org/2000/svg">
<circle cx="40" cy="40" r="40" fill="#F9EB4C"/>
<path d="M31.6667 40C31.6667 41.5531 32.9687 46.25 36.875 46.25C40.7812 46.25 42.0833 41.5531 42.0833 40M58.75 21.25V54.5833C58.75 58.75 55.625 60.8333 52.5 60.8333C49.375 60.8333 46.25 58.75 46.25 54.5833V52.5M48.125 21.25H25.625C23.2083 21.25 21.25 23.1146 21.25 25.4167V33.75H32.7083C32.7083 31.6667 34.2708 29.5833 36.875 29.5833C39.4792 29.5833 41.0417 31.6667 41.0417 33.75H52.5V25.4167C52.5 23.1146 50.5417 21.25 48.125 21.25Z" stroke="black" stroke-width="4" stroke-linecap="round" stroke-linejoin="round"/>
</svg>
