<svg width="80" height="80" viewBox="0 0 80 80" fill="none" xmlns="http://www.w3.org/2000/svg">
<circle cx="40" cy="40" r="40" fill="#F9EB4C"/>
<path d="M16 20L23.617 27.893L26.544 25.229L23.894 20.024L16 20ZM50.336 42.108C51.775 42.51 53.324 41.684 53.732 40.199C54.127 38.741 53.287 37.208 51.834 36.794L50.707 36.479L49.244 41.781L50.336 42.108ZM49.449 36.138L40.334 33.535C39.734 33.377 39.129 33.743 38.96 34.35L38.108 37.439C37.941 38.047 38.264 38.667 38.876 38.85L47.998 41.429L49.449 36.138ZM50.887 44.919C50.1689 44.2191 49.2877 43.709 48.323 43.435L37.27 40.298L30.48 28.088C30.12 27.456 29.544 26.957 28.8 26.75C27.312 26.325 25.764 27.212 25.357 28.72C25.1601 29.4111 25.2375 30.1515 25.573 30.787L34.067 45.891C34.067 45.891 34.763 47.022 36.514 47.607L51.956 51.998L59.118 59.367C59.358 59.622 59.671 59.816 60.042 59.927C61.122 60.231 62.249 59.573 62.562 58.49C62.767 57.725 62.527 56.922 61.986 56.423L50.887 44.919ZM59.131 47.972L60.736 50.1L64 46.487L61.242 44.929C61.504 42.971 60.304 41.075 58.385 40.528C56.274 39.931 54.078 41.172 53.492 43.313C52.89 45.466 54.127 47.678 56.238 48.275C57.246 48.566 58.266 48.408 59.131 47.972Z" fill="black"/>
</svg>
