<svg width="126" height="43" viewBox="0 0 126 43" fill="none" xmlns="http://www.w3.org/2000/svg">
<path d="M11.5568 27H2.27557V0.818181H11.6335C14.267 0.818181 16.5341 1.34233 18.4347 2.39062C20.3352 3.4304 21.7969 4.92614 22.8196 6.87784C23.8509 8.82955 24.3665 11.1648 24.3665 13.8835C24.3665 16.6108 23.8509 18.9545 22.8196 20.9148C21.7969 22.875 20.3267 24.3793 18.4091 25.4276C16.5 26.4759 14.2159 27 11.5568 27ZM7.81108 22.2571H11.3267C12.9631 22.2571 14.3395 21.9673 15.456 21.3878C16.581 20.7997 17.4247 19.892 17.9872 18.6648C18.5582 17.429 18.8438 15.8352 18.8438 13.8835C18.8438 11.9489 18.5582 10.3679 17.9872 9.14062C17.4247 7.91335 16.5852 7.00994 15.4688 6.4304C14.3523 5.85085 12.9759 5.56108 11.3395 5.56108H7.81108V22.2571ZM34.0025 0.818181V27H28.467V0.818181H34.0025ZM43.2869 0.818181L49.6151 20.7102H49.858L56.1989 0.818181H62.3352L53.3097 27H46.1761L37.1378 0.818181H43.2869ZM71.022 0.818181V27H65.4865V0.818181H71.022ZM97.4755 0.818181V27H92.6942L81.3036 10.5213H81.1119V27H75.5763V0.818181H80.4343L91.7354 17.2841H91.9656V0.818181H97.4755ZM119.41 9.28125C119.231 8.65909 118.979 8.10937 118.656 7.6321C118.332 7.14631 117.935 6.73722 117.467 6.40483C117.006 6.06392 116.478 5.80398 115.881 5.625C115.293 5.44602 114.641 5.35653 113.925 5.35653C112.587 5.35653 111.411 5.68892 110.397 6.35369C109.391 7.01846 108.607 7.98579 108.045 9.25568C107.482 10.517 107.201 12.0597 107.201 13.8835C107.201 15.7074 107.478 17.2585 108.032 18.5369C108.586 19.8153 109.37 20.7912 110.384 21.4645C111.398 22.1293 112.596 22.4616 113.977 22.4616C115.229 22.4616 116.299 22.2401 117.185 21.7969C118.08 21.3452 118.762 20.7102 119.231 19.892C119.708 19.0739 119.947 18.1065 119.947 16.9901L121.072 17.1562H114.322V12.9886H125.278V16.2869C125.278 18.5881 124.792 20.5653 123.82 22.2188C122.849 23.8636 121.511 25.1335 119.806 26.0284C118.102 26.9148 116.15 27.358 113.951 27.358C111.496 27.358 109.34 26.8168 107.482 25.7344C105.624 24.6435 104.175 23.0966 103.136 21.0938C102.104 19.0824 101.589 16.696 101.589 13.9347C101.589 11.8125 101.896 9.92045 102.509 8.25852C103.131 6.58807 104.001 5.1733 105.117 4.0142C106.234 2.85511 107.533 1.97301 109.016 1.3679C110.499 0.762783 112.106 0.460226 113.836 0.460226C115.319 0.460226 116.7 0.677556 117.978 1.11222C119.256 1.53835 120.39 2.14347 121.379 2.92756C122.376 3.71165 123.19 4.64489 123.82 5.72727C124.451 6.80114 124.856 7.98579 125.035 9.28125H119.41ZM0.732955 33.5455V33.2727H6.63068V33.5455H3.81818V42H3.54545V33.5455H0.732955ZM7.02166 42H6.73189L9.85121 33.2727H10.2262L13.3455 42H13.0558L10.0558 33.6136H10.0217L7.02166 42ZM8.0103 38.7784H12.0671V39.0511H8.0103V38.7784ZM20.8754 36C20.8242 35.7017 20.7191 35.402 20.56 35.1009C20.4038 34.7969 20.195 34.5185 19.9336 34.2656C19.6751 34.0128 19.3683 33.8097 19.0131 33.6562C18.658 33.5028 18.256 33.4261 17.8072 33.4261C17.1396 33.4261 16.5543 33.6023 16.0515 33.9545C15.5515 34.304 15.1623 34.7955 14.8839 35.429C14.6055 36.0597 14.4663 36.7955 14.4663 37.6364C14.4663 38.4659 14.604 39.1974 14.8796 39.831C15.1552 40.4645 15.5458 40.9588 16.0515 41.3139C16.5572 41.669 17.1538 41.8466 17.8413 41.8466C18.4492 41.8466 18.989 41.7031 19.4606 41.4162C19.9322 41.1264 20.3001 40.7116 20.5643 40.1719C20.8285 39.6293 20.9549 38.9773 20.9435 38.2159L21.0629 38.3182H17.9265V38.0455H21.2163V38.3182C21.2163 39.1136 21.0714 39.7955 20.7816 40.3636C20.4918 40.929 20.0927 41.3636 19.5842 41.6676C19.0756 41.9687 18.4947 42.1193 17.8413 42.1193C17.1026 42.1193 16.4592 41.9318 15.9109 41.5568C15.3654 41.179 14.9421 40.6534 14.641 39.9801C14.3427 39.3068 14.1935 38.5256 14.1935 37.6364C14.1935 36.9659 14.2788 36.3565 14.4492 35.8082C14.6225 35.2571 14.8683 34.7841 15.1864 34.3892C15.5075 33.9915 15.8896 33.6861 16.3327 33.473C16.7759 33.2599 17.2674 33.1534 17.8072 33.1534C18.3185 33.1534 18.7702 33.2415 19.1623 33.4176C19.5543 33.5938 19.8881 33.8253 20.1637 34.1122C20.4421 34.3963 20.6623 34.7045 20.8242 35.0369C20.989 35.3665 21.0969 35.6875 21.1481 36H20.8754ZM23.5472 42V33.2727H23.82V41.7273H28.1836V42H23.5472ZM30.57 33.2727V42H30.2972V33.2727H30.57ZM39.8427 33.2727V42H39.57L33.604 33.7841H33.57V42H33.2972V33.2727H33.57L39.5359 41.4886H39.57V33.2727H39.8427ZM42.5668 42V33.2727H47.2202V33.5455H42.8395V37.5H46.9645V37.7727H42.8395V41.7273H47.3395V42H42.5668Z" fill="white"/>
</svg>
